PathFileType	4	(X/Y/Z)	C:\Users\Basilio\Documents\Thesis Gigler\squatting_fais\c3dfiles\039\SLS_pre_front4\markers_experimental.trc
DataRate	CameraRate	NumFrames	NumMarkers	Units	OrigDataRate	OrigDataStartFrame	OrigNumFrames
200.000000	200.000000	4	63	mm	200.000000	249	1999
Frame#	Time	FHD			LBHD			RBHD			C7			T10			CLAV			LSHO			LUUPA			LMUPA			LDUPA			LLEP			LMEP			LRAD			LUL			LRFIN			RSHO			RUPA1			RMUPA			RDUPA			RLEP			RMEP			RRAD			RUL			RUFIN			LASI			RASI			USACR			LSACR			RSACR			LTHI1			LTHI2			LTHI3			LTHI4			LLFC			LMFC			LTIB1			LTIB2			LTIB3			LTIB4			LLMAL			LMMAL			LHEE			LMT1			LMT2			LMT5			RTHI			RTHI2			RTHI3			RTHI4			RLFC			RMFC			RTIB1			RTIB2			RTIB3			RTIB4			RLMAL			RMMAL			RHEE			RMT1			RMT2			RMT5			*61			*62			
		X1	Y1	Z1	X2	Y2	Z2	X3	Y3	Z3	X4	Y4	Z4	X5	Y5	Z5	X6	Y6	Z6	X7	Y7	Z7	X8	Y8	Z8	X9	Y9	Z9	X10	Y10	Z10	X11	Y11	Z11	X12	Y12	Z12	X13	Y13	Z13	X14	Y14	Z14	X15	Y15	Z15	X16	Y16	Z16	X17	Y17	Z17	X18	Y18	Z18	X19	Y19	Z19	X20	Y20	Z20	X21	Y21	Z21	X22	Y22	Z22	X23	Y23	Z23	X24	Y24	Z24	X25	Y25	Z25	X26	Y26	Z26	X27	Y27	Z27	X28	Y28	Z28	X29	Y29	Z29	X30	Y30	Z30	X31	Y31	Z31	X32	Y32	Z32	X33	Y33	Z33	X34	Y34	Z34	X35	Y35	Z35	X36	Y36	Z36	X37	Y37	Z37	X38	Y38	Z38	X39	Y39	Z39	X40	Y40	Z40	X41	Y41	Z41	X42	Y42	Z42	X43	Y43	Z43	X44	Y44	Z44	X45	Y45	Z45	X46	Y46	Z46	X47	Y47	Z47	X48	Y48	Z48	X49	Y49	Z49	X50	Y50	Z50	X51	Y51	Z51	X52	Y52	Z52	X53	Y53	Z53	X54	Y54	Z54	X55	Y55	Z55	X56	Y56	Z56	X57	Y57	Z57	X58	Y58	Z58	X59	Y59	Z59	X60	Y60	Z60	X61	Y61	Z61	X62	Y62	Z62	X63	Y63	Z63	

250	1.245	-259.5859375000001	1793.351806640625	-782.8659667968752	-414.760711669922	1763.133544921875	-906.9896240234377	-391.0996398925782	1771.06298828125	-767.8051757812501	-457.757049560547	1591.94873046875	-852.6762695312502	-439.8311767578126	1280.405883789063	-859.4614257812502	-307.3260192871094	1539.966918945313	-848.453552246094	-365.6805725097657	1585.826293945313	-1023.696899414063	-223.8493347167969	1455.136962890625	-1132.244995117188	-187.4889373779297	1485.3974609375	-1116.361328125	-156.1972198486328	1440.622924804688	-1141.477905273438	-89.68399047851564	1426.24658203125	-1142.810546875	-105.4027633666992	1362.531372070313	-1094.99560546875	182.7259674072266	1388.830200195313	-1042.956298828125	184.2415618896485	1375.553100585938	-1117.868286132813	267.2538146972657	1403.79052734375	-1040.607543945313	-350.9483337402344	1581.953491210938	-673.1174926757814	-221.8194274902344	1432.536865234375	-577.5334472656251	-182.18798828125	1456.826782226563	-593.6016235351564	-158.4876251220703	1403.513549804688	-575.8166503906251	-95.48521423339845	1392.679321289063	-580.7777709960939	-112.6916809082032	1335.671630859375	-633.0989379882814	190.6042938232422	1352.739501953125	-670.0090942382814	185.0355834960938	1326.893920898438	-596.8869018554689	279.7071533203126	1361.10009765625	-656.6919555664064	-248.8996124267579	1112.60302734375	-970.2644042968752	-252.8731536865235	1095.260864257813	-744.7844238281251	-437.980682373047	1153.268798828125	-857.4658813476565	-438.4883728027345	1122.365844726563	-886.989440917969	-441.7469787597657	1119.698974609375	-828.3403930664065	-306.5824890136719	829.527526855469	-1045.589721679688	-273.7359619140626	752.0587768554689	-1042.905029296875	-227.2222747802735	755.4715576171876	-1031.7138671875	-301.5974121093751	698.9641723632814	-1034.976440429688	-306.7936096191407	575.9012451171876	-1032.45654296875	-280.2016296386719	549.0063476562501	-918.244567871094	-265.1748657226563	422.8077087402345	-1010.019653320313	-335.0413818359376	389.144012451172	-1052.051635742188	-294.9142150878907	380.3277587890626	-1036.103393554688	-304.6513061523438	300.6217041015626	-998.373474121094	-385.6629333496095	143.2684326171875	-1030.554565429688	-369.9618530273438	138.9799957275391	-946.204772949219	-459.5500488281251	110.0369567871094	-994.9942626953127	-233.8080139160157	56.91783905029298	-972.1124267578127	-239.6133270263672	57.65422821044923	-1015.127502441406	-287.2514343261719	42.66901016235352	-1065.441650390625	-296.1387023925782	822.659362792969	-682.1749877929689	-252.914779663086	771.3801269531252	-677.0055541992189	-221.2740478515626	777.2585449218752	-681.9157714843751	-274.2527770996094	688.8035888671876	-687.1190185546876	-300.3078308105469	549.9039306640626	-709.0844116210939	-258.0698547363282	537.4193115234376	-820.4755859375002	-279.2764282226563	335.8876037597657	-717.9291381835939	-370.2198791503907	279.6498107910157	-713.4262695312501	-325.7286376953126	265.9383544921876	-709.6819458007814	-311.6095886230469	215.7488708496094	-741.4157104492189	-387.1755981445314	127.5951843261719	-719.9329833984376	-352.7197265625001	141.5998077392578	-802.8227539062502	-453.9223937988282	105.4397964477539	-772.6033935546877	-230.3684539794922	55.38562774658205	-778.5645141601565	-235.5359039306641	56.93749237060548	-732.7446899414064	-291.1548767089844	40.91026306152344	-681.0021972656251	nan	nan	nan	nan	nan	nan	
251	1.25	-260.1136474609376	1793.43505859375	-782.882263183594	-415.2761840820314	1762.9833984375	-906.885437011719	-391.613739013672	1770.983764648438	-767.6133422851564	-458.2304077148439	1591.880493164063	-852.4671020507815	-439.995819091797	1280.390625	-859.3137817382815	-307.6607360839844	1540.24658203125	-848.279479980469	-366.2783508300782	1586.335205078125	-1023.032409667969	-223.1325683593751	1457.883544921875	-1131.815673828125	-187.0769348144532	1488.345581054688	-1115.43505859375	-155.2272338867188	1444.161865234375	-1140.805297851563	-88.50189208984376	1430.169677734375	-1141.93310546875	-103.8328247070313	1366.414794921875	-1094.540405273438	184.2021789550782	1395.277709960938	-1041.803955078125	185.6204071044922	1382.323120117188	-1116.994384765625	268.4252929687501	1410.684326171875	-1039.380249023438	-351.2495422363282	1582.54443359375	-673.2584228515626	-221.3116455078126	1434.98974609375	-577.9483032226564	-181.2017211914063	1459.95068359375	-593.9422607421876	-157.1387939453125	1406.864624023438	-575.8703002929689	-93.7805862426758	1396.369873046875	-581.0127563476564	-110.49267578125	1339.124267578125	-632.6971435546876	192.5334014892579	1359.414184570313	-670.4291381835939	187.2417449951172	1333.551513671875	-597.2310180664064	281.6057739257813	1368.0478515625	-657.1780395507814	-248.9296112060547	1112.65283203125	-970.2039794921877	-252.9527740478516	1095.314819335938	-744.6968383789064	-438.2012329101564	1153.304931640625	-857.2958984375002	-438.639129638672	1122.34228515625	-886.8612060546877	-441.7811889648439	1119.670654296875	-828.2033691406252	-306.6013793945313	829.5372314453127	-1045.477294921875	-273.7329101562501	752.0756225585939	-1042.851684570313	-227.3251953125001	755.4995117187501	-1031.662353515625	-301.6610717773438	698.9619750976564	-1034.891235351563	-306.8100891113282	575.8830566406251	-1032.441162109375	-280.2335205078126	549.0145263671876	-918.1610107421877	-265.1705322265626	422.7933349609376	-1010.021667480469	-335.0284423828126	389.1516723632814	-1051.98486328125	-294.8702087402344	380.3653869628907	-1036.072265625	-304.6279602050782	300.5861511230469	-998.313415527344	-385.6315002441407	143.2629089355469	-1030.540771484375	-369.9596557617188	138.9529571533203	-946.2271728515627	-459.5472106933595	110.0775756835938	-994.9630126953127	-233.7801971435547	56.91262435913087	-972.0637817382815	-239.6515655517579	57.69573974609376	-1015.128967285156	-287.0323791503907	42.54318237304688	-1065.399658203125	-296.1139831542969	822.6531372070315	-682.1145019531251	-253.1434478759766	771.025573730469	-677.0244750976564	-221.2812042236329	777.2541503906252	-681.9281616210939	-274.2463378906251	688.7933959960939	-687.0849609375001	-300.3562622070313	549.8613891601564	-709.0596313476564	-258.1923522949219	537.4172363281251	-820.4620361328127	-279.2741699218751	335.8808898925782	-717.9139404296876	-370.1929626464844	279.5961303710938	-713.4243774414064	-325.7395019531251	265.9202575683594	-709.6572875976564	-311.6056518554688	215.7371978759766	-741.4912109375001	-387.176239013672	127.6555328369141	-719.9324340820314	-352.7492065429688	141.5993957519532	-802.838562011719	-453.8969726562501	105.4416427612305	-772.5864257812502	-230.3315887451172	55.35279464721681	-778.5418701171877	-235.5089111328126	56.93726730346681	-732.7421264648439	-291.1481933593751	40.88008499145509	-680.9969482421876	nan	nan	nan	nan	nan	nan	
252	1.255	-260.5700988769532	1793.632690429688	-782.7028808593752	-416.0114746093751	1762.930786132813	-906.6726074218752	-392.0205383300782	1770.902587890625	-767.4417114257814	-458.7577514648439	1591.82177734375	-852.2199707031252	-440.3695373535157	1280.365600585938	-859.228210449219	-308.0272521972657	1540.396484375	-848.2247314453127	-366.6446838378907	1586.816162109375	-1022.490356445313	-222.4098510742188	1460.594360351563	-1131.3935546875	-186.5937957763672	1491.191772460938	-1114.662109375	-154.1854705810547	1447.599975585938	-1140.170166015625	-87.52610778808595	1434.162353515625	-1141.1982421875	-102.1652526855469	1370.034790039063	-1094.00634765625	186.2547149658203	1403.58935546875	-1040.518798828125	188.2951965332032	1388.859252929688	-1116.171997070313	269.7967529296876	1417.507934570313	-1038.171508789063	-351.6892089843751	1583.300170898438	-673.3649902343751	-220.0313568115235	1437.7099609375	-578.2008056640626	-180.4827117919922	1462.909423828125	-594.3385620117189	-155.7311706542969	1410.2265625	-575.8737182617189	-92.37227630615236	1400.40283203125	-581.3286132812501	-108.537582397461	1342.798095703125	-633.2572631835939	194.2730255126954	1366.18701171875	-670.9307250976564	189.1724395751953	1340.088134765625	-597.7998046875001	283.2862548828126	1375.349853515625	-657.8020629882814	-249.0705261230469	1112.68359375	-970.145690917969	-253.0386047363282	1095.306640625	-744.5505981445314	-438.2917480468751	1153.296142578125	-857.150573730469	-438.7475585937501	1122.334838867188	-886.7346191406252	-441.7987365722657	1119.664184570313	-828.0911254882815	-306.7035522460938	829.5571289062502	-1045.381591796875	-273.7688903808594	752.0772705078126	-1042.761840820313	-227.3840484619141	755.5328979492189	-1031.592529296875	-301.6888427734376	699.0021972656251	-1034.806518554688	-306.9031066894532	575.9023437500001	-1032.353881835938	-280.2756347656251	549.0233764648439	-918.087829589844	-265.1398010253907	422.8244628906251	-1009.929260253906	-335.0301818847657	389.1876220703126	-1051.947143554688	-294.9508361816407	380.3428039550782	-1036.072021484375	-304.6577453613282	300.6051330566407	-998.2793579101565	-385.6685180664064	143.3232116699219	-1030.500366210938	-369.9590148925782	138.9734649658203	-946.207702636719	-459.5328674316407	110.0571670532227	-994.9588012695315	-233.7965393066407	56.87393951416017	-972.039001464844	-239.6383972167969	57.6973342895508	-1015.102905273438	-287.1655578613282	42.70104598999024	-1065.407348632813	-296.1671447753907	822.6492919921877	-682.0259399414064	-253.1092529296876	771.0336914062502	-677.0064086914064	-221.2904357910157	777.2925415039065	-681.9198608398439	-274.2399291992188	688.8123779296876	-687.0263671875001	-300.3797912597657	549.8736572265626	-709.0397338867189	-258.2668762207032	537.4902343750001	-820.4739990234377	-279.2777709960938	335.9377136230469	-717.9656982421876	-370.1895141601563	279.5317077636719	-713.4240112304689	-325.7130126953126	265.9377746582032	-709.5930175781251	-311.5773315429688	215.7488098144532	-741.5064697265626	-387.1949157714845	127.6300888061524	-719.9471435546876	-352.7607421875001	141.6153259277344	-802.8209228515627	-453.9039611816407	105.4339447021485	-772.5850219726565	-230.3688659667969	55.35937881469728	-778.558288574219	-235.547592163086	56.93110275268556	-732.7421875000001	-291.1142272949219	40.88962554931641	-681.0141601562501	nan	nan	nan	nan	nan	nan	
253	1.26	-261.0258178710938	1793.675170898438	-782.481384277344	-414.6798095703126	1762.693481445313	-906.5845947265627	-392.406219482422	1770.787231445313	-767.3507080078126	-459.0538940429689	1591.70654296875	-852.0985107421877	-440.4822387695314	1280.325805664063	-859.164978027344	-308.5443420410157	1540.530517578125	-848.1054687500002	-367.2396850585938	1587.350952148438	-1021.924377441406	-221.5727844238282	1463.369873046875	-1130.878051757813	-186.4581146240235	1493.574584960938	-1113.786254882813	-153.4242706298828	1450.764404296875	-1139.455688476563	-86.41151428222658	1438.185546875	-1140.254516601563	-100.736930847168	1373.566162109375	-1093.472900390625	186.8439331054688	1408.39892578125	-1039.68603515625	189.06689453125	1395.639526367188	-1115.079223632813	270.7885742187501	1424.303833007813	-1036.939575195313	-352.0932922363282	1583.981567382813	-673.4842529296876	-218.7171478271485	1440.593872070313	-577.6504516601564	-179.6799774169922	1465.69677734375	-594.6093750000001	-154.2447967529297	1413.575927734375	-576.2747802734376	-90.91056060791017	1404.108520507813	-581.7833251953126	-106.7284622192383	1346.419067382813	-633.1022949218751	196.0621185302735	1372.091918945313	-671.3497924804689	191.4241943359375	1346.73974609375	-597.9030151367189	285.1980285644532	1382.022216796875	-658.6148681640626	-249.1986694335938	1112.700439453125	-970.019958496094	-253.1262969970704	1095.385864257813	-744.4627075195314	-438.508758544922	1153.289428710938	-856.9553222656252	-438.840789794922	1122.287231445313	-886.6392822265627	-441.8008422851564	1119.579833984375	-827.9622192382815	-306.7378540039063	829.5645141601565	-1045.322875976563	-273.8902282714844	752.0390625000001	-1042.689819335938	-227.4251098632813	755.5843505859376	-1031.532104492188	-301.7000122070313	699.0178833007814	-1034.753295898438	-306.8267517089844	575.9344482421876	-1032.2509765625	-280.2534179687501	549.0226440429689	-918.028991699219	-265.1586303710938	422.8137512207032	-1009.900817871094	-335.0399169921876	389.2093200683595	-1051.83740234375	-294.8160705566407	380.3994445800782	-1036.034423828125	-304.6881408691407	300.6144409179688	-998.2358398437502	-385.6609191894532	143.3174133300782	-1030.502319335938	-369.9465637207032	138.9773406982422	-946.222839355469	-459.6355285644532	110.0468139648438	-994.963317871094	-233.7322235107422	56.88458633422853	-972.078308105469	-239.6497344970704	57.68167114257814	-1015.126098632813	-287.1798095703126	42.72529602050782	-1065.400146484375	-296.1468200683594	822.6558837890627	-681.9625244140626	-253.122787475586	771.0882568359377	-676.9775390625001	-221.3196258544922	777.3269042968752	-681.9273681640626	-274.2331542968751	688.8171386718751	-686.9410400390626	-300.4610595703126	549.8669433593751	-708.9931030273439	-258.3545837402344	537.5079956054689	-820.4691162109377	-279.2657165527344	335.8512573242188	-717.9289550781251	-370.1503295898438	279.5751953125001	-713.3897094726564	-325.7074279785157	265.9520568847657	-709.5886230468751	-311.5956726074219	215.7434997558594	-741.4729614257814	-387.1450195312501	127.6029586791992	-719.9385375976564	-352.7462768554688	141.6182861328125	-802.809753417969	-453.9080810546876	105.4607696533203	-772.5911865234377	-230.3791198730469	55.34753036499025	-778.5545654296877	-235.5182800292969	56.96545410156251	-732.7366333007814	-291.1522521972657	40.90007019042969	-681.0109863281251	nan	nan	nan	nan	nan	nan	
